<?xml version="1.0" encoding="UTF-8" standalone="no"?>
<svg
   xmlns:dc="http://purl.org/dc/elements/1.1/"
   xmlns:cc="http://creativecommons.org/ns#"
   xmlns:rdf="http://www.w3.org/1999/02/22-rdf-syntax-ns#"
   xmlns:svg="http://www.w3.org/2000/svg"
   xmlns="http://www.w3.org/2000/svg"
   xmlns:sodipodi="http://sodipodi.sourceforge.net/DTD/sodipodi-0.dtd"
   xmlns:inkscape="http://www.inkscape.org/namespaces/inkscape"
   id="Layer_1"
   data-name="Layer 1"
   viewBox="0 0 451 105"
   version="1.1"
   sodipodi:docname="gimvic.svg"
   inkscape:export-filename="/home/zigapk/Desktop/gimvic-flutter/images/gimvic_green.png"
   inkscape:export-xdpi="96"
   inkscape:export-ydpi="96"
   inkscape:version="0.92.3 (2405546, 2018-03-11)">
  <metadata
     id="metadata41">
    <rdf:RDF>
      <cc:Work
         rdf:about="">
        <dc:format>image/svg+xml</dc:format>
        <dc:type
           rdf:resource="http://purl.org/dc/dcmitype/StillImage" />
        <dc:title>Artboard 2</dc:title>
      </cc:Work>
    </rdf:RDF>
  </metadata>
  <sodipodi:namedview
     pagecolor="#ffffff"
     bordercolor="#666666"
     borderopacity="1"
     objecttolerance="10"
     gridtolerance="10"
     guidetolerance="10"
     inkscape:pageopacity="0"
     inkscape:pageshadow="2"
     inkscape:window-width="1920"
     inkscape:window-height="1017"
     id="namedview39"
     showgrid="false"
     inkscape:zoom="2.5099778"
     inkscape:cx="177.33333"
     inkscape:cy="28.195166"
     inkscape:window-x="0"
     inkscape:window-y="30"
     inkscape:window-maximized="1"
     inkscape:current-layer="Layer_1" />
  <defs
     id="defs4">
    <style
       id="style2">.cls-1{fill:#c9c1b8;}.cls-2{fill:#d6e03d;}</style>
  </defs>
  <title
     id="title6">Artboard 2</title>
  <path
     class="cls-1"
     d="M92.71,63.92c0-16.31-1.64-18.52-1.72-18.52a12.5,12.5,0,0,1,3.5-.65c3.22,0,6.08,1.72,6.08,4.58,0,7.58-.35,16.16-.35,21.45,0,3.21.07,7.51,3.57,7.51a5.05,5.05,0,0,0,2.71-1l.29.21s-1.79,4.43-7.93,4.43c-3.15,0-6.44-1.5-6.44-5.78,0-4.08.29-8.23.29-12.23m-1.15-30a4.83,4.83,0,1,1,4.79,4.8,4.9,4.9,0,0,1-4.79-4.8"
     id="path8"
     style="fill:#ffffff;fill-opacity:1" />
  <path
     class="cls-1"
     d="M113,63.7c0-3.57-.15-7.3-.29-10.72-.36-6.94-1.43-7.58-1.43-7.58a12.5,12.5,0,0,1,3.5-.65c3.3,0,5.58,1.72,5.58,3.94a6.43,6.43,0,0,1-.28,1.78l.28.08c1.36-3.51,6.51-5.8,11.08-5.8,6.73,0,9.44,2.58,9.73,5.72l.28.08c1.58-3.51,6.72-5.8,11.3-5.8,9.44,0,10.44,4.94,10.44,9.94,0,5.22-.29,9.94-.29,16.09,0,3.21.08,7.51,3.58,7.51a5.05,5.05,0,0,0,2.71-1l.29.21s-1.78,4.43-7.93,4.43c-3.15,0-6.44-1.5-6.44-5.78,0-6.16.21-10.44.21-17.74,0-4.72-.14-9.29-6.07-9.29-6.51,0-7.58,9.15-7.58,12.58,0,.14.14,12.37.14,12.8,0,5.08-1.65,6.15-2.79,7.43-2.58-.35-5.22-.57-5.22-5.5,0-6.15.22-10.72.22-18,0-4.72-.14-9.29-6.29-9.29-3,0-7.16,3.36-7.16,9.86s.29,11.3.29,18.1c0,3.85-2,4.85-4.51,4.85a26.93,26.93,0,0,1-5.07-.71C111.82,81,113,76.5,113,63.7"
     id="path10"
     style="fill:#ffffff;fill-opacity:1" />
  <path
     class="cls-1"
     d="M175.36,63.7c0-3.57-.14-7.3-.29-10.72-.36-6.94-1.43-7.58-1.43-7.58a12.44,12.44,0,0,1,3.5-.65c3.29,0,5.58,1.72,5.58,3.94a6.43,6.43,0,0,1-.28,1.78l.28.08c1.64-3.72,7.36-6.16,12.51-6.16,9.44,0,10.44,5.08,10.44,10.3s-.28,9.94-.28,16.09c0,3.21.07,7.51,3.57,7.51a5.11,5.11,0,0,0,2.72-1l.29.21s-1.8,4.43-7.94,4.43c-3.15,0-6.44-1.5-6.44-5.78,0-6.16.22-10.44.22-17.74,0-4.93-.15-9.65-6.3-9.65-3.86,0-8.57,3.5-8.57,10.22,0,6.44.28,11.3.28,18.1,0,3.85-2,4.85-4.51,4.85a26.82,26.82,0,0,1-5.07-.71c.5-.22,1.72-4.72,1.72-17.52"
     id="path12"
     style="fill:#ffffff;fill-opacity:1" />
  <path
     class="cls-1"
     d="M233.62,59.13v-.65c0-6-1.36-9.36-6.87-9.36-3.49,0-7.21,1.93-9.86,4.29l-.29-.29c1.15-4.29,6.94-8.73,13.23-8.73,10.15,0,11.52,6.08,11.52,12.59,0,3.79-.22,8.58-.22,12.51v.86c0,2.79.07,7.94,3.58,7.94a5.15,5.15,0,0,0,2.72-1l.27.21s-1.78,4.43-7.93,4.43c-2.93,0-6-1.21-6.07-5l-.29-.14a11.08,11.08,0,0,1-9.73,5.51c-6,0-9.5-4.37-9.5-9.59,0-10.37,11.65-13.44,19.44-13.58M227,77.22c2.43,0,6.37-2.22,6.37-4.94s.21-6.65.21-10.3c-2.93.51-11.36,1.8-11.36,9.37,0,4.29,2.29,5.87,4.78,5.87"
     id="path14"
     style="fill:#ffffff;fill-opacity:1" />
  <path
     class="cls-1"
     d="M248.64,79.93a5.3,5.3,0,0,1,.79-2.93c3.43-4.93,14.37-21.74,17.23-27.45l-.14-.3c-3.87.72-10.23.72-14.59.72-2.79,0-3-2.57-3.29-5.36,0,0,3.64.86,14.87.86h13.16v.86A6.44,6.44,0,0,1,275.59,50c-6.93,10.08-13.36,20.81-17.3,27.11l.15.28c3-.93,9.29-1,14.3-1s5.15,1.29,5.64,5.43a149.45,149.45,0,0,0-16.23-.57H248.71s-.07-.72-.07-1.29"
     id="path16"
     style="fill:#ffffff;fill-opacity:1" />
  <path
     class="cls-1"
     d="M284.07,63.92c0-16.31-1.64-18.52-1.71-18.52a12.37,12.37,0,0,1,3.5-.65c3.21,0,6.08,1.72,6.08,4.58,0,7.58-.36,16.16-.36,21.45,0,3.21.07,7.51,3.57,7.51a5.11,5.11,0,0,0,2.72-1l.29.21s-1.79,4.43-7.94,4.43c-3.15,0-6.44-1.5-6.44-5.78,0-4.08.29-8.23.29-12.23m-1.15-30a4.83,4.83,0,1,1,4.79,4.8,4.9,4.9,0,0,1-4.79-4.8"
     id="path18"
     style="fill:#ffffff;fill-opacity:1" />
  <path
     class="cls-1"
     d="M297.19,96.23l-.14-.35c4.93-4,6.43-5.22,6.43-31.39,0-4.29-.14-8.09-.28-11.51-.36-6.94-1.43-7.58-1.43-7.58a12.37,12.37,0,0,1,3.51-.65c3.21,0,6.07,1.65,6.07,4.44,0,4.79-.28,10.65-.28,16.44,0,6.15.28,12.16.28,16.59,0,9.79-6.15,14-14.16,14m5.15-62.35a4.83,4.83,0,1,1,4.8,4.8,4.9,4.9,0,0,1-4.8-4.8"
     id="path20"
     style="fill:#ffffff;fill-opacity:1" />
  <path
     class="cls-1"
     d="M337.11,59.13v-.65c0-6-1.35-9.36-6.86-9.36-3.51,0-7.22,1.93-9.87,4.29l-.29-.29c1.15-4.29,6.94-8.73,13.23-8.73,10.16,0,11.51,6.08,11.51,12.59,0,3.79-.21,8.58-.21,12.51v.86c0,2.79.07,7.94,3.58,7.94a5.05,5.05,0,0,0,2.71-1l.29.21s-1.79,4.43-7.94,4.43c-2.93,0-6-1.21-6.07-5l-.29-.14a11.08,11.08,0,0,1-9.73,5.51c-6,0-9.51-4.37-9.51-9.59,0-10.37,11.66-13.44,19.45-13.58m-6.58,18.09c2.43,0,6.37-2.22,6.37-4.94s.21-6.65.21-10.3c-2.93.51-11.36,1.8-11.36,9.37,0,4.29,2.28,5.87,4.78,5.87"
     id="path22"
     style="fill:#ffffff;fill-opacity:1" />
  <path
     class="cls-2"
     d="M424.57,44.82c2.94,0,11.29,1.27,11.29,5,0,1.4-1.26,3.43-2.46,4.7h-.35s-3.92-6.39-10-6.39c-6.94,0-9.4,7.72-9.4,13.75,0,8.28,4.56,14.95,11.72,14.95,5.4,0,11.37-4.56,11.37-4.56l.28.28S434,82,422.39,82c-9.33,0-16.91-7.65-16.91-17.47,0-10.8,7.72-19.72,19.09-19.72M411.62,28.69c5.82,3.58,8.91,10.45,9.68,12.21a6.31,6.31,0,0,0,1.54.21c4.84,0,3.93-8.28,11.93-12.42a7.77,7.77,0,0,0-2.18-.28c-2.94,0-7.78,3.51-9.25,6.1H423c-1.47-2.59-6.24-6.1-9.18-6.1a7.72,7.72,0,0,0-2.18.28"
     id="path24"
     style="fill:#00e676;fill-opacity:1" />
  <path
     class="cls-2"
     d="M78.14,45A21,21,0,0,0,66,38.13c-7.8-1.37-17,1-22,7.4-5.82,7.52-4.36,18.8,4.44,23.2,6.95,3.47,17.75-.5,17.26-9.06-.21-3.75-3.84-7.21-7.86-6.57,0,.12,0,.28.06.37a3.87,3.87,0,0,1,2.61,2.19,5.39,5.39,0,0,1,.08,3.78c-1.08,4.27-7.48,5.22-10.74,2.74-5.84-4.46-2.7-11.41,1.4-14.41,5-3.66,13.54-3.49,18.35.46C77,54.25,78,64,74.8,71.79c-4.2,10.12-16.06,13-26.3,11.39-22.92-3.5-30.42-32.24-19.4-50A38.51,38.51,0,0,1,54.73,15.7c7.33-1.38,14.29-1.54,21.89,1.69A22.52,22.52,0,0,1,80,19.22c.08,0,.32-.23.39-.27C72,5.71,51.81,7.21,39.42,13.14a47.26,47.26,0,0,0-12.18,8.35A42.94,42.94,0,0,0,14,50.93c-.21,8.53,1.87,17.7,6.92,24.6C31.67,90.19,54.42,95.39,70.27,86.17,84.58,77.83,89.11,57.77,78.14,45Z"
     id="path26"
     style="fill:#00e676;fill-opacity:1" />
  <path
     class="cls-2"
     d="M389.33,63.92c0-16.31-1.64-18.52-1.72-18.52a12.5,12.5,0,0,1,3.5-.65c3.22,0,6.08,1.72,6.08,4.58,0,7.58-.36,16.16-.36,21.45,0,3.21.08,7.51,3.58,7.51a5.11,5.11,0,0,0,2.72-1l.28.21s-1.79,4.43-7.93,4.43c-3.15,0-6.44-1.5-6.44-5.78,0-4.08.29-8.23.29-12.23"
     id="path28"
     style="fill:#00e676;fill-opacity:1" />
  <path
     class="cls-2"
     d="M381,38.39l.06-.1Z"
     id="path30"
     style="fill:#76ff03;fill-opacity:1" />
  <path
     class="cls-2"
     d="M380.57,39.32a.36.36,0,0,1,0-.09A.36.36,0,0,0,380.57,39.32Z"
     id="path32"
     style="fill:#76ff03;fill-opacity:1" />
  <path
     class="cls-2"
     d="M380.8,38.83l.05-.1Z"
     id="path34"
     style="fill:#76ff03;fill-opacity:1" />
  <path
     class="cls-2"
     d="M394.2,29.16l-.76-.1a11.06,11.06,0,0,0-2.24,0c-2.21.27-5.74,1.69-8.42,5.94a36.08,36.08,0,0,0-1.79,3.4c-.17.33-.59,1.3-.63,1.38h0c-1.46,3.42-3.23,10-7.34,22.51L369.3,73.58h-.25c-3.85-9.65-9.93-26.36-11.7-33.86a5.38,5.38,0,0,0-5.29-4.1c-4.29,0-5.74.82-5.74.82a36.91,36.91,0,0,1,3,5.55c3.21,6.94,8.92,24.28,11.31,32.22,2.21,7.26,9.78,7.57,9.78,7.57s.28-1.15.71-2.67c.31-1.08.7-2.34,1.11-3.51l10.91-30.27-2.85,7.91h0A77.07,77.07,0,0,1,383.2,46c2.38-4.79,4.86-7.59,6.84-8.49a4.54,4.54,0,0,1,5.2.67A4.84,4.84,0,0,0,398,33.88,4.92,4.92,0,0,0,394.2,29.16Z"
     id="path36"
     style="fill:#00e676;fill-opacity:1" />
</svg>
